<svg xmlns="http://www.w3.org/2000/svg" viewBox="0 0 814 835"><defs><style>.cls-1{fill:#fff;}</style></defs><title>Shark</title><g id="Layer_2" data-name="Layer 2"><polyline class="cls-1" points="184 439 199 410 202 398 216 398 234 410 244 418 241 439"/><polygon class="cls-1" points="507.77 345 557.16 377.46 570 420 530.49 420 492.95 420 489 375.22 497.89 351.72 507.77 345"/></g><g id="Layer_1" data-name="Layer 1"><path d="M157.57,608.36l-5.2-3.14,8.46-2.76c-.86-.72-2.06-1.74-3.49-3l6.71-4.53-6.82-1.16c1.27-4.5,3-8.66,3.52-13,1.09-9.72,1.91-19.51,2.17-29.29.53-20.15.47-40.31,1-60.47.46-19.08,4-37.7,9.43-56,1.16-3.87,2.6-4.49,11.82-5.32l-6.22-3.63,15.87-2.29.26,1-3.1,1.41,7,3.4-10,.67c.4,7.36,2.41,9.26,9.34,9.45,10.31.27,20.61.78,30.92.9a23.24,23.24,0,0,0,10.22-2.62l-8.34-6,.92-1.58,6.54-.83-8.63-3-.25-.9,13.21-2.41L234.26,421l.45-1.44,10.72-3,.07-1.45-12.82-2.6,3.41-2.36-18.51-1.82,3.79-4.24-18.7-3.3-.35,1.88,7.39,1.69-10.35,4.24,14.6,1.75-15.09,4,7.49,3-6.83,3.41.36,1,9,1.75-.08.54-17.17-2.34-.27-1.06,7.08-3.18-10.84-3.16,14.5-3.91-13.73-2.21,8.13-4-7.35-1.77a16.75,16.75,0,0,0,13.76-7.74L199.26,392l7.09-3.66-3-3.43,6.83-2,.19-1.17-7.1-2.62a87,87,0,0,1,5.83-7.66c3.07-3.22,6.75-5.88,9.68-9.2,4.75-5.37,10.24-7,17-4.79a11,11,0,0,0,3.24,0l.42-1.59-10.22-3.08c4.41-3.93,8.15-8,12.62-11.08,7.51-5.11,15.37-9.74,23.3-14.19a86.29,86.29,0,0,1,12.8-5.37c10.73-3.9,21.32-8.37,32.33-11.23,14.13-3.67,28.57-6.18,43-8.8,4.84-.88,9.9-.73,14.87-.73,10.24,0,20.49.44,30.74.3,3.7-.06,7.39-1.82,11.08-1.78,4.59,0,9.17,1.14,13.76,1.77,9.54,1.31,19.37,1.58,28.53,4.19,10.95,3.11,21.37,8.12,31.94,12.51A84,84,0,0,1,497.44,325c6.95,4.5,13.48,9.63,20.28,14.37,2.84,2,6.3,3.22,8.78,5.54,4.57,4.28,8.73,9,12.87,13.75,5.75,6.57,11.26,13.35,17,19.88.8.91,2.57,1,3.93,1.37,1.82.45,3.69.75,6.39,1.29l-3.21,4.06,6.36,2.63c-.47,1.31-.94,2.65-1.61,4.53l6,2.39-5,3.27,7.17,2.47-7.16.86-.12.75,9.75,2.06-3.36,4.15,17.22,2L579,414.46l10.32,3-4.74,4.31,12.54,1.44-.08.94-33.39-2.43c0-.44,0-.87,0-1.31,2,0,4.08.31,6-.09a11.66,11.66,0,0,0,5.18-3c-8.42-2-13.82-11.4-24.1-7.78,0-.45,0-.9,0-1.35l10-4L551,401.81l7.74-1.11-5-2.55,5.94-3.34-8.83-2.88,7.1-4.28L552.71,385l7.1-2.76c-4.42-1-7.57-2.34-10.7-2.31-4.48,0-6.85-2.28-9.21-5.51-3.31-4.5-4.77-4.41-8.55-.39-1.34,1.42-2.81,2.73-4.72,4.57.14-1.71.23-2.77.34-4.1h-6.34c.71-2,1.27-3.65,1.89-5.28,3.06-8-3.34-18.87-12-20.05a4.14,4.14,0,0,0-3.41,1.23q-6.13,9.54-11.85,19.37c-1.64,2.81-2.85,5.86-4.4,9.12l8.46,2.53-6,3.51,4.49,2.67-2.31,3.13c4.49-1.34,8.48-1.43,10.79-3.44,5.28-4.59,10.56-5.5,15.76-1.33,1.25,1,2.62,1.85,4,2.8l-3.73,3.42,2.49,2.32c-1.06,2.61-6.44,1.29-5.16,6.1l-7.61.62-.09,1.18,7.78,1.87-6.37,4L526.58,410l.12.85-14.47,3.77a21.76,21.76,0,0,1,3.56,1.12c5.6,2.69,10.46,3.32,16.14-1.09,2.93-2.29,8.32-1.64,12.62-1.87,5.08-.27,10.18-.06,16.88-.06l-11,3.23c3.61,5.78,7.42,6.77,32.18,8.19l-3.48,2.32,7.27,3.11c-9.85.75-9,.57-7,10.08,2.26,10.86,3.06,22.06,3.93,33.16Q586,506.41,588,540.05a158.28,158.28,0,0,0,9.71,45.21c1.67,4.6,3.06,9,9.57,8.76,3.34-.13,3.56,1.37,1,5.32l9.65,3.14-5.84,2.38,9.26,3.45-3.24,3.92,7.21,2.47-9.9.83c1.21,5.09,2.3,10,3.57,15,4.18,16.08-6.06,26.54-17.19,30.14-10.19,3.3-21,5-31.63,6.61a177.4,177.4,0,0,1-28.81,2.22c-10.26-.19-20.5-1.83-30.73-3.07-14.69-1.78-29.31-4.29-44-5.53-17.07-1.43-34.21-2.33-51.33-2.55-33-.42-65.76,3.36-98.43,7.83-44.6,6.1-89.36,9.86-134.43,8-13.33-.55-26.23-2.56-36.43-12.59-1.3-1.28-4-1.67-6-1.67m113.9-277.7L244,377.67l1.34-1.92c-3.17-2.44-5.91-4.64-8.75-6.71-.87-.63-2.17-1.52-3-1.28-6.45,2-13.1,3.77-16.25,10.81l4.65,3-.37,1.16L211.89,384l0,1.16,11.44,2.54L221.64,392l11.26,2.46-7.51,4.24c-2.39-3.67-7.07-3-12.3,1.59.23.2.45.57.69.59,6,.51,12.09.73,18.07,1.53,5.65.76,11.24.53,16.06,5.75,3.11,3.37,9.86.47,13.47-4L252,401.8l8-1.31-5.71-2.26,2.39-3.33-6.86-2.9a79.66,79.66,0,0,0,5.71-7c.25-.39-1.25-1.94-1.94-3,3.55-3,7-2.15,10.43.33l-1.91,2.51,11.34,3.91c.12-.4.25-.8.37-1.2l-3.27-2.8c1.68-.94,3-1.69,5.09-2.88-2.07-.91-3.44-2.09-4.67-1.95-5.11.57-5-2.22-4.91-6.06a146.74,146.74,0,0,0-.34-21.39c-.92-8.1-5.74-9.67-12-4.48-2.41,2-4.32,4.86-7,6.22-3.69,1.85-3.82,4-2.33,7.18C247.57,368.32,250.7,375.26,253.87,382.18ZM427.65,539.92h.47c0-2.5,0-5,0-7.49,0-2.67.11-5.33.18-8,.3-11.47-1.82-9.91,10.2-9.76,10.49.13,14.31,4.18,14.49,14.76q.21,13.74.28,27.48c.06,8.72,0,8.72,8.94,8.33.5,0,1.17.15,1.46-.1,1.21-1,3.26-2.2,3.3-3.38.52-12.46,1.3-25,.69-37.4-.24-4.88-3.91-9.55-5.78-14.41a6,6,0,0,1-.06-4.33c6.66-13.43,7.22-27.55,4.2-41.81-1.49-7-6.33-12.6-13.46-14.07a136.49,136.49,0,0,0-26.2-2.8c-14-.13-12.05-3-13,12.07,0,.67,0,1.34,0,2q0,48,.07,95.91c0,9.16.15,9.19,9.21,8.63,3.9-.25,5.17-2,5.08-5.65C427.54,553.23,427.65,546.57,427.65,539.92ZM295.13,447.38l0-.42c-1.33,0-2.66,0-4,0-9.57-.06-9.45-.06-9.2,9.65.08,3.23,1.22,4.46,4.42,4.37,4.66-.13,9.33,0,14,.08,6.75.1,6.79.12,6.8,7q.08,43.69.07,87.39c0,9.92,0,9.79,10,9.36,3.16-.13,4-1.55,4.06-4.29.2-7.31.67-14.62.74-21.93.23-23.64.31-47.29.48-70.93,0-6.44.09-6.43,6.73-6.39,3,0,6,0,9,0,9.75-.05,9.75-.05,9.91-9.71,0-.16,0-.33,0-.49.18-2.68-.94-3.94-3.75-4-10.79-.27-21.58-.87-32.36-.93C306.37,446.12,300.75,446.94,295.13,447.38Zm60.74,118.44c13.09-.8,25.75-1.59,38.42-2.32,1.44-.08,2.9.27,4.35.31,2.18.07,6.12.47,6.24,0a24.48,24.48,0,0,0,.67-9.73c-.19-1.14-3.3-2.46-5.13-2.53q-13-.54-25.95-.35c-4.48.07-5.82-1.24-4.1-5.6.7-1.77.59-3.91.59-5.89,0-27.94,0-55.89.06-83.83,0-9.89,2-9.83-9.87-10-3.89-.06-5.33,1.38-5.32,5.23C355.89,488.77,355.87,526.48,355.87,565.82Zm34.58-195.05c1.91-6.33,3.66-12,5.29-17.62,2.39-8.3,4.95-16.55,6.95-24.94,2.1-8.79-1.56-15.42-9.79-16.55-10.24-1.39-20.52-1.23-30.15,3.82-3.83,2-4.87,4.1-2.44,7.82,4.79,7.33,9.48,14.71,14.16,22.1C379.6,353.48,384.68,361.59,390.45,370.77ZM418,372c4.07-3.83,8.32-7.31,11.94-11.36,7.62-8.53,15.69-16.86,18.76-28.4,1.8-6.77-1.39-16.42-10.5-17.9-2.63-.43-5.22-1-7.84-1.52-11.12-2.05-18.41,1.25-16.89,15.14C415.06,342.42,416.47,356.92,418,372Zm37.62,5.53,1.56.48a25.6,25.6,0,0,0,2.95-2.52,63,63,0,0,1,19.7-15.57,42.06,42.06,0,0,0,9.86-6.62c9.25-8.64,1.29-23.07-8.2-26.41a45.51,45.51,0,0,0-12.17-2.19c-8.27-.48-8.91-.36-9.89,8.07C457.72,347.63,456.85,362.59,455.63,377.52ZM341.85,609.39l-.59-1.09-10.14-3.22,6.11-2.55-9.32-2.93,2.58-3.89-.84-1.43-12,5.22,6.86,3-9.66,2.57,6.54,3.69-7.25,3.35,7.15,2.94c-3.84,0-6.36-.23-8.8.1-1.19.17-3.1,1.28-3.21,2.16-.91,7-1.69,14.11-1.93,21.2-.05,1.35,2.35,3.83,3.84,4A190.41,190.41,0,0,0,331,643.84c9,.17,13.69-6.63,10.66-15-1.59-4.42-3.1-8.86-4.71-13.47l9.3-.62-7.52-2.51-.54-1.34Zm-55-6.87-9.7-2.83c.61-1.23,1.11-2.23,2.16-4.37l-9.47,4.06,6.72,3.15-9.09,2.6,7.12,3.69-7.93,3.43,6.92,2.24-.17.74H263.2c-2.3,8.16-1,23.7,2.69,30.09.81,1.42,2.67,3.13,4.08,3.15a152.68,152.68,0,0,0,19.84-.65c4.17-.47,6.24-3.77,5.68-8a29.13,29.13,0,0,0-2-7.63c-2.37-5.57-5-11-7.74-16.83l9.47-.56-7.5-2.44-1.24-2.08,4.75-.71-1.06-1.24-10.07-3.16ZM441,605.14l7.3-2.63-9.3-3,2.8-4c-6.78-4.08-9.59,4-14.92,3.09l0,1.29,4.53,2.53-9.17,2.65,5.19,3.61-7.28,3.36,4.66,3c-3.29,0-5.85-.35-8.25.13a6.31,6.31,0,0,0-4,2.9c-2.71,5.65-5.17,11.45-7.35,17.33-.42,1.13.54,4,1.31,4.16,7.24,1.75,14.54,3.65,21.92,4.25,2.77.22,7.1-2.19,8.41-4.63,2.09-3.9,2.47-8.79,3.14-13.33.47-3.25-1-7.78.65-9.59S447,615,450,614.51l-5.83-2.35,5.6-3.59ZM554,618c-5.7,12.48-5,26.84-16.8,35.61a85.22,85.22,0,0,0,13.11.77c1.64,0,3.62-.37,4.87.39,7.19,4.37,15.08,4.57,23,4.13,6.54-.36,10.78-3.52,10.83-10,.05-7.6-1.59-15.28-3.2-22.77-.54-2.56-3.21-4.66-5.59-7.89-3.45,7.71-6.61,14.22-9.31,20.92-2,5.09-7.19,9.94-12.26,9.83C566.63,637.65,562.9,628.07,554,618ZM333.34,372.43l1.76-.26c.55-2.64.95-5.33,1.7-7.92,3.69-12.93,7.38-25.86,11.32-38.71.92-3,.49-4.38-2.47-5.73-7.46-3.38-14.75-1.62-21.94.39-13.46,3.76-11.34,4.05-7.64,14.71,3.2,9.23,6.94,18.29,10.85,27.25C328.52,365.82,331.17,369,333.34,372.43ZM371,615.07c-3.38,0-5.78-.36-8,.13-1.47.33-3.45,1.62-3.86,2.9a77.45,77.45,0,0,0-3.42,14.49c-.23,2,1.3,5.68,2.67,6a74.88,74.88,0,0,0,15.13,1.72c3,.11,6.21-1.37,9.14-.91,4.39.69,5.92-1.28,6.17-4.93a32.93,32.93,0,0,0-.55-6.91c-.58-4-1.31-8-2-12.3l10.2-.6-7.29-2.51,5-3.56-8.84-3.44,6.74-2.6-9.19-3.07,2.94-3.7c-3.71-2.07-3.71-2.07-13.36,3.79l4.93,2.88-8.85,2.67,5.69,3.67-7.79,3Zm124.81-12.49L480.93,598l-.59,1.72,5.33,2.81-8.24,2.58,6.06,3.75-7.37,3.3,5.72,2.8a35,35,0,0,1-5.49,0c-5.31-1-7.28,2.16-9,6.41a142.36,142.36,0,0,1-6.64,13.17c-1,1.86-2.29,3.55-4.22,6.5,9,2,17.13,4.16,25.35,5.39,2.2.33,5.93-1.48,7.05-3.42,3.31-5.74,5.76-12,4.19-19-.63-2.8-.46-5.77-.67-9h10.43l-7.69-2.87,4.25-3.47L489.54,605Zm32.12-102.8c6.23,2.09,27.67,1.76,35.16-1.08C572.86,495,575,492,573.42,481.84c-.38-2.46-.32-5-.82-7.42A52.6,52.6,0,0,0,569.81,464c-2.18-5-3.94-5-7.46-1-8.72,9.91-17.44,19.82-26.32,29.58C533.65,495.21,530.71,497.31,527.88,499.78ZM220.11,615.93l-1.52.79c-.35,7-1.54,14.18-.77,21.11.59,5.39,3.34,10.65,5.72,15.68.86,1.82,3.43,4,5.24,4A103.35,103.35,0,0,0,248,656.05c2.64-.47,6.26-2.94,6.86-5.19s-1.36-6.07-3.37-7.92c-7.08-6.46-14.7-12.31-22-18.49C226.27,621.73,223.23,618.77,220.11,615.93ZM570.46,430.14c-2.37-1.28-3.51-1.83-4.59-2.49-2.09-1.27-4.18-3.77-6.21-3.71-10.2.29-20.39,1.25-31.63,2l8.39,3.84c-1.95,10.4-9.9,16.37-15.8,24.45a204.67,204.67,0,0,0,28.6-1.57c6-.78,11.07-4,12.22-10.56.66-3.77.12-7.75.12-12ZM498.19,651.57l.67,1.93c8.21.56,16.41,1.43,24.62,1.55,4.34.06,8.84-1.37,10.34-6.23,3.36-10.9,2.84-21.57-3.35-31.46a5.59,5.59,0,0,0-4.36-2.12c-1.39.1-3,1.54-3.9,2.8-1.16,1.57-1.56,3.67-2.58,5.37-5,8.41-8,18.27-17.3,23.63C500.65,648,499.56,650,498.19,651.57ZM189.92,452.39c-7.26,7.08-9.73,15.49-11.39,24.11-.83,4.32,2.55,6.23,6.19,7.06,11.87,2.7,23.47,1.36,34.73-3,1.81-.7,3.31-2.24,6.07-4.17C210.31,472,199.35,463.43,189.92,452.39Zm102.75-72.28c1-1.17,1.32-1.4,1.37-1.68,2.47-12.66,5.24-25.28,7.18-38,.76-5-2.71-7.32-7.93-7.13A24.5,24.5,0,0,0,276.14,341a4.74,4.74,0,0,0-.63,4.31C281,356.78,286.72,368.12,292.67,380.11Zm-122.87,249-1.66,0c-.91,2.33-2.24,4.6-2.66,7a142.56,142.56,0,0,0-2.24,17.66c-.19,4.31,1.24,8.16,6.57,9,3.42.56,6.72,2.06,10.15,2.39s6.93-.3,10.4-.51c-1.69-3.22-3.22-6.54-5.11-9.64-2.53-4.17-5.49-8.08-8-12.27C174.6,638.4,172.28,633.73,169.8,629.15Zm15,4.74c-.39,2-.91,3-.69,3.81,1.84,6.77,3.72,13.52,5.78,20.21,1.58,5.15,5.05,7,10.35,5.48,4.77-1.35,9.66-2.3,14.41-3.69,1.41-.42,2.56-1.74,3.83-2.65a25.93,25.93,0,0,0-3.47-3.1c-7-4.28-14.86-7.15-20.28-14C192.65,637.23,188.58,636.07,184.85,633.89Z"/><path d="M387.64,12.66c6.5,2.94,14.49,6,22,10,17.72,9.53,31.57,23.72,44.84,38.5,20.06,22.36,37.39,46.78,53.35,72.14,4.1,6.51,9.46,7.89,16.06,8.37A36.47,36.47,0,0,1,535,144.13l-8.24,2.69,12.1,3.05-9.27,2.91.06.71L541,155.27c.13.52.26,1,.4,1.56l-6.68,2.78,5.34,1,.11,1.7L529.26,164c2,3.32,4,6.44,5.82,9.62,12.32,21.09,25,42,36.77,63.37,8.55,15.58,15.95,31.8,23.56,47.87,6.24,13.18,12.45,26.4,17.92,39.91,7,17.29,13.21,34.91,20,52.31.49,1.26,2.51,2.23,4,2.73a81.47,81.47,0,0,0,8.63,1.76L641.8,385l5.79,2.89-5.69,3.75,8.23,2.9L644,397.88l6.61,2.56-7.42,1.24-.09,1,9.9,1.69-5.14,4.11,18.57,1.79c0,.24,0,.47,0,.71l-12.12,3.47,8.91,2.65c0,.33,0,.66,0,1l-4.81,1.16-.33,1.31,12.42,2.94-17.65,2.46,8.58,3.7-9.13.59c2.32,7.43,4.83,14.68,6.85,22q7.69,28.07,15,56.24c3.69,14.28,7.34,28.59,10.52,43,2.57,11.67,4.49,23.48,6.57,35.26.75,4.27,1.36,8.35,7.32,7.39.56-.09,1.21.43,2.49.93l-3.56,4.61,7.84,2.86-8.62,2.5,8.66,3.59-6,3.48,7.46,2.94H695.71c3,42.7,7.31,108.57,10.29,150.94,2.75.6,4.5-22.43,7.6-21.75l.08,1.13-4.7,2.2,6.12,4.16-4.59,2.47,4.46,4-6.75,2.73,5.38,2.17,0,.92a34.76,34.76,0,0,0-5.42.4c-1.07.23-2,1.22-3,1.88a15.61,15.61,0,0,0,2.46,3.13c.69.54,1.9.48,2.89.57a290.48,290.48,0,0,1,73.28,16.43A25.87,25.87,0,0,1,787,788v2c-20.32-2-40.5.1-60.75,1.47a396.33,396.33,0,0,1-47.75.62c-15.06-.81-30-4.22-45-5.44-19.53-1.58-39.17-3.06-58.43,2.75-10,3-20,5.74-30.06,8.6H482c9.85-1.43,19.73-2.69,29.55-4.32,19.48-3.22,38.89-6.78,58.37-9.92q34-5.47,68.07-10.43c10.52-1.55,21.11-2.6,31.66-4,1.39-.18,3.82-.86,3.89-1.51.54-5.08,4.19-4.23,8.86-4.2l-5.73-2.52,7.12-3.4-4.91-3.35,5.42-2.88a18.76,18.76,0,0,1-2.28-1.66,21.81,21.81,0,0,1-2-2.44l4.73-2,0-1-9-1.94c-.12-42.26-5.23-84.42-12.59-127,2-.17,3.58-.37,5.15-.43s3.29,0,6.2,0l-7.1-2.65,5-3.55-7.61-3.62,7.19-2.58-7.73-2.78,3.72-4.18c-.74-.51-1.17-1.05-1.55-1-7.55.66-7.82-4.46-8.91-10C654,566.3,649.78,548.17,645.79,530c-3.39-15.42-6.38-30.93-10.31-46.21-3.35-13-7.85-25.74-11.72-38.63-1.37-4.57-2.4-9.24-3.71-14.38l10.84-1-7.23-3c0-.48-.07-1-.11-1.44l15.78-1.91c-2.05-2.31-9.57,1.62-6.85-6.17l-11.08-2.91,11.09-3.48,0-.71-16.37-1.71-.21-1.34,10.3-2.85-10.36-1.75c1.2-2,2.57-3.79,3.23-5.78.23-.67-1.17-2.45-2.16-2.82-2-.77-4.29-.93-7.64-1.57l6.26-4.69-6.78-2.59,3.83-3.25c-2.32-.92-4.35-2.51-6.08-2.24-4.5.7-5.41-2.26-6.55-5.24-4.2-11-8-22.2-12.65-33-5.89-13.68-12.23-27.19-18.82-40.55-7.8-15.8-16-31.4-24.16-47-7.66-14.74-15.17-29.57-23.22-44.1s-16.56-28.49-24.86-42.72c-.57-1-1-2-1.71-3.47l10.35-1c0-.52.07-1,.11-1.56l-6.4-1.34,8.21-2.59c-.08-.5-.15-1-.23-1.5l-11.93-1.9-.21-.77,10-2.85-13.07-3.15,9.35-2.63v-.94c-6.06-.82-12.15-1.47-18.16-2.55-1.88-.34-4.2-1.34-5.24-2.81-12.77-17.94-26.5-35-42.83-49.9s-34.45-26.95-57-30c-17.68-2.39-34,2.2-48.92,11.88-19.81,12.83-34.31,30.83-48.26,49.35-5.08,6.74-9.91,13.68-15.34,21.2l18.64,3.15-15,3,8.77,3.38-13.88,2.72,0,1.07,8.36,1.77.23,1-13.41,3.09,5,1,.05,1.29c-3.26.32-6.59.3-9.75,1.06-2.16.51-4.87,1.57-6,3.27-18.54,29.05-37.54,57.83-55,87.51-15.15,25.7-26.79,53.22-36.81,81.37-1.79,5-3.52,10.07-5.64,14.95-.8,1.85-2.61,3.27-3.45,4.27,0,2.38.4,4.63-.09,6.67a34.86,34.86,0,0,1-3.52,9.77c-.93,1.56-3.6,2.85-5.54,2.92-8.15.33-16.8,86.39-25,86.25-11.81-.2-16.2,157.52-28,157-7,516.16-25.1-174.09-34.66-245.85-2-.07-27-.63-29.09,3-.69,1.19-3.45,1.61-5.28,1.65-2.09.05,1.38-5,8.38-12.68,23-25.43,84.34-80.22,111.05-80,4.94,0,7.21-1.45,9.13-6.08,12.31-29.57,27.87-57.45,44.74-84.62,5.27-8.47,10.46-17,15.48-25.61a7.53,7.53,0,0,1,7.69-4.21,15.26,15.26,0,0,0,8-1.84l-6.34-.91,13.47-3,0-.9-7.5-1.91-.06-1.32L232.53,150,226,147.19l.22-1,12.57-2.51-17.44-2.83a35.38,35.38,0,0,1,2-4.48c15.83-24.25,31.7-48.53,51.09-70.13,21.05-23.43,44.1-44.38,75.49-53.44"/><path class="cls-1" d="M425.65,539.92c0,6.65-.11,13.31.05,20,.09,3.68-1.18,5.4-5.08,5.65-9.06.56-9.2.53-9.21-8.63q0-48-.07-95.91c0-.66,0-1.33,0-2,1-15.05-1-12.2,13-12.07a136.49,136.49,0,0,1,26.2,2.8c7.13,1.47,12,7,13.46,14.07,3,14.26,2.46,28.38-4.2,41.81a6,6,0,0,0,.06,4.33c1.87,4.86,5.54,9.53,5.78,14.41.61,12.43-.17,24.94-.69,37.4,0,1.18-2.09,2.33-3.3,3.38-.29.25-1,.08-1.46.1-8.91.39-8.88.39-8.94-8.33q-.09-13.74-.28-27.48c-.18-10.58-4-14.63-14.49-14.76-12-.15-9.9-1.71-10.2,9.76-.07,2.67-.15,5.33-.18,8,0,2.5,0,5,0,7.49Zm10.15-39.56c8.54.51,11.09-1.06,14.37-12.44a29.52,29.52,0,0,0,.67-8.37c-.17-15.8-2.88-18.25-18.84-17.94-3.83.07-5.29,1.4-5.19,5.31.23,9,.31,17.93.05,26.89-.2,6.73-.48,6.72,6.08,6.55C433.6,500.34,434.27,500.36,435.8,500.36Z"/><path class="cls-1" d="M293.13,447.38c5.62-.44,11.24-1.26,16.86-1.22,10.78.06,21.57.66,32.36.93,2.81.07,3.93,1.33,3.75,4,0,.16,0,.33,0,.49-.16,9.66-.16,9.66-9.91,9.71-3,0-6,0-9,0-6.64,0-6.69-.05-6.73,6.39-.17,23.64-.25,47.29-.48,70.93-.07,7.31-.54,14.62-.74,21.93-.08,2.74-.9,4.16-4.06,4.29-10,.43-9.95.56-10-9.36q0-43.69-.07-87.39c0-6.9-.05-6.92-6.8-7-4.66-.07-9.33-.21-14-.08-3.2.09-4.34-1.14-4.42-4.37-.25-9.71-.37-9.71,9.2-9.65,1.33,0,2.66,0,4,0Z"/><path class="cls-1" d="M353.87,565.82c0-39.34,0-77.05,0-114.76,0-3.85,1.43-5.29,5.32-5.23,11.85.19,9.9.13,9.87,10-.08,27.94,0,55.89-.06,83.83,0,2,.11,4.12-.59,5.89-1.72,4.36-.38,5.67,4.1,5.6q13-.2,25.95.35c1.83.07,4.94,1.39,5.13,2.53a24.48,24.48,0,0,1-.67,9.73c-.12.5-4.06.1-6.24,0-1.45,0-2.91-.39-4.35-.31C379.62,564.23,367,565,353.87,565.82Z"/><path class="cls-1" d="M388.45,370.77c-5.77-9.18-10.85-17.29-16-25.37-4.68-7.39-9.37-14.77-14.16-22.1-2.43-3.72-1.39-5.82,2.44-7.82,9.63-5.05,19.91-5.21,30.15-3.82,8.23,1.13,11.89,7.76,9.79,16.55-2,8.39-4.56,16.64-6.95,24.94C392.11,358.81,390.36,364.44,388.45,370.77Z"/><path class="cls-1" d="M416,372c-1.54-15.07-2.95-29.57-4.53-44-1.52-13.89,5.77-17.19,16.89-15.14,2.62.48,5.21,1.09,7.84,1.52,9.11,1.48,12.3,11.13,10.5,17.9-3.07,11.54-11.14,19.87-18.76,28.4C424.33,364.68,420.08,368.16,416,372Z"/><path class="cls-1" d="M453.63,377.52c1.22-14.93,2.09-29.89,3.81-44.76,1-8.43,1.62-8.55,9.89-8.07a45.51,45.51,0,0,1,12.17,2.19c9.49,3.34,17.45,17.77,8.2,26.41a42.06,42.06,0,0,1-9.86,6.62,63,63,0,0,0-19.7,15.57,25.6,25.6,0,0,1-2.95,2.52Z"/><path class="cls-1" d="M339.85,609.39l-3.67,1.47.54,1.34,7.52,2.51-9.3.62c1.61,4.61,3.12,9,4.71,13.47,3,8.41-1.64,15.21-10.66,15a190.41,190.41,0,0,1-19.83-1.29c-1.49-.18-3.89-2.66-3.84-4,.24-7.09,1-14.17,1.93-21.2.11-.88,2-2,3.21-2.16,2.44-.33,5-.1,8.8-.1l-7.15-2.94,7.25-3.35-6.54-3.69,9.66-2.57-6.86-3,12-5.22.84,1.43-2.58,3.89,9.32,2.93-6.11,2.55,10.14,3.22Z"/><path class="cls-1" d="M284.84,602.52l-6.75,2.62,10.07,3.16,1.06,1.24-4.75.71,1.24,2.08,7.5,2.44-9.47.56c2.7,5.82,5.37,11.26,7.74,16.83a29.13,29.13,0,0,1,2,7.63c.56,4.26-1.51,7.56-5.68,8a152.68,152.68,0,0,1-19.84.65c-1.41,0-3.27-1.73-4.08-3.15-3.68-6.39-5-21.93-2.69-30.09h10.2l.17-.74-6.92-2.24,7.93-3.43-7.12-3.69,9.09-2.6-6.72-3.15,9.47-4.06c-1.05,2.14-1.55,3.14-2.16,4.37Z"/><path class="cls-1" d="M439,605.14l8.75,3.43-5.6,3.59,5.83,2.35c-3,.45-7.53-.16-9.32,1.77s-.18,6.34-.65,9.59c-.67,4.54-1.05,9.43-3.14,13.33-1.31,2.44-5.64,4.85-8.41,4.63-7.38-.6-14.68-2.5-21.92-4.25-.77-.18-1.73-3-1.31-4.16,2.18-5.88,4.64-11.68,7.35-17.33a6.31,6.31,0,0,1,4-2.9c2.4-.48,5-.13,8.25-.13l-4.66-3,7.28-3.36-5.19-3.61,9.17-2.65-4.53-2.53,0-1.29c5.33.94,8.14-7.17,14.92-3.09l-2.8,4,9.3,3Z"/><path class="cls-1" d="M552,618c8.91,10.08,12.64,19.66,4.67,31,5.07.11,10.22-4.74,12.26-9.83,2.7-6.7,5.86-13.21,9.31-20.92,2.38,3.23,5,5.33,5.59,7.89,1.61,7.49,3.25,15.17,3.2,22.77,0,6.48-4.29,9.64-10.83,10-7.94.44-15.83.24-23-4.13-1.25-.76-3.23-.37-4.87-.39a85.22,85.22,0,0,1-13.11-.77C547,644.83,546.29,630.47,552,618Z"/><path class="cls-1" d="M331.34,372.43c-2.17-3.41-4.82-6.61-6.42-10.27-3.91-9-7.65-18-10.85-27.25-3.7-10.66-5.82-11,7.64-14.71,7.19-2,14.48-3.77,21.94-.39,3,1.35,3.39,2.72,2.47,5.73-3.94,12.85-7.63,25.78-11.32,38.71-.75,2.59-1.15,5.28-1.7,7.92Z"/><path class="cls-1" d="M369,615.07l-4.56-3.22,7.79-3-5.69-3.67,8.85-2.67-4.93-2.88c9.65-5.86,9.65-5.86,13.36-3.79l-2.94,3.7,9.19,3.07-6.74,2.6,8.84,3.44-5,3.56,7.29,2.51-10.2.6c.73,4.33,1.46,8.31,2,12.3a32.93,32.93,0,0,1,.55,6.91c-.25,3.65-1.78,5.62-6.17,4.93-2.93-.46-6.1,1-9.14.91a74.88,74.88,0,0,1-15.13-1.72c-1.37-.34-2.9-4.05-2.67-6a77.45,77.45,0,0,1,3.42-14.49c.41-1.28,2.39-2.57,3.86-2.9C363.17,614.71,365.57,615.07,369,615.07Z"/><path class="cls-1" d="M493.76,602.58,487.54,605l9.84,3.63-4.25,3.47,7.69,2.87H490.39c.21,3.2,0,6.17.67,9,1.57,7-.88,13.26-4.19,19-1.12,1.94-4.85,3.75-7.05,3.42-8.22-1.23-16.31-3.38-25.35-5.39,1.93-3,3.23-4.64,4.22-6.5a142.36,142.36,0,0,0,6.64-13.17c1.74-4.25,3.71-7.38,9-6.41a35,35,0,0,0,5.49,0l-5.72-2.8,7.37-3.3-6.06-3.75,8.24-2.58-5.33-2.81.59-1.72Z"/><path class="cls-1" d="M251.56,382c.69,1,2.19,2.57,1.94,3a79.66,79.66,0,0,1-5.71,7l6.86,2.9-2.39,3.33,5.71,2.26-8,1.31,9.38,2.41c-3.61,4.45-10.36,7.35-13.47,4-4.82-5.22-10.41-5-16.06-5.75-6-.8-12-1-18.07-1.53-.24,0-.46-.39-.69-.59,5.23-4.59,9.91-5.26,12.3-1.59l7.51-4.24L219.64,392l1.66-4.38-11.44-2.54,0-1.16,9.75-1.26.37-1.16-4.65-3c3.15-7,9.8-8.85,16.25-10.81.8-.24,2.1.65,3,1.28,2.84,2.07,5.58,4.27,8.75,6.71L242,377.67l9.88,4.51Z"/><path class="cls-1" d="M525.88,499.78c2.83-2.47,5.77-4.57,8.15-7.19,8.88-9.76,17.6-19.67,26.32-29.58,3.52-4,5.28-4,7.46,1a52.6,52.6,0,0,1,2.79,10.45c.5,2.43.44,5,.82,7.42C573,492,570.86,495,561,498.7,553.55,501.54,532.11,501.87,525.88,499.78Z"/><path class="cls-1" d="M218.11,615.93c3.12,2.84,6.16,5.8,9.39,8.52,7.33,6.18,14.95,12,22,18.49,2,1.85,4,5.69,3.37,7.92s-4.22,4.72-6.86,5.19a103.35,103.35,0,0,1-19.26,1.43c-1.81,0-4.38-2.15-5.24-4-2.38-5-5.13-10.29-5.72-15.68-.77-6.93.42-14.07.77-21.11Z"/><path class="cls-1" d="M568.46,430.14h-8.9c0,4.25.54,8.23-.12,12-1.15,6.56-6.17,9.78-12.22,10.56a204.67,204.67,0,0,1-28.6,1.57c5.9-8.08,13.85-14,15.8-24.45L526,426c11.24-.79,21.43-1.75,31.63-2,2-.06,4.12,2.44,6.21,3.71C565,428.31,566.09,428.86,568.46,430.14Z"/><path class="cls-1" d="M496.19,651.57c1.37-1.54,2.46-3.55,4.14-4.53,9.28-5.36,12.28-15.22,17.3-23.63,1-1.7,1.42-3.8,2.58-5.37.93-1.26,2.51-2.7,3.9-2.8a5.59,5.59,0,0,1,4.36,2.12c6.19,9.89,6.71,20.56,3.35,31.46-1.5,4.86-6,6.29-10.34,6.23-8.21-.12-16.41-1-24.62-1.55Z"/><path class="cls-1" d="M187.92,452.39c9.43,11,20.39,19.58,35.6,24-2.76,1.93-4.26,3.47-6.07,4.17-11.26,4.37-22.86,5.71-34.73,3-3.64-.83-7-2.74-6.19-7.06C178.19,467.88,180.66,459.47,187.92,452.39Z"/><path class="cls-1" d="M290.67,380.11c-5.95-12-11.67-23.33-17.16-34.78a4.74,4.74,0,0,1,.63-4.31,24.5,24.5,0,0,1,17.15-7.74c5.22-.19,8.69,2.14,7.93,7.13-1.94,12.74-4.71,25.36-7.18,38C292,378.71,291.64,378.94,290.67,380.11Z"/><path class="cls-1" d="M251.56,382l.31.16c-3.17-6.92-6.3-13.86-9.51-20.77-1.49-3.19-1.36-5.33,2.33-7.18,2.7-1.36,4.61-4.21,7-6.22,6.24-5.19,11.06-3.62,12,4.48a146.74,146.74,0,0,1,.34,21.39c-.13,3.84-.2,6.63,4.91,6.06,1.23-.14,2.6,1,4.67,1.95-2.09,1.19-3.41,1.94-5.09,2.88l3.27,2.8c-.12.4-.25.8-.37,1.2l-11.34-3.91,1.91-2.51C258.53,379.87,255.11,379,251.56,382Z"/><path class="cls-1" d="M167.8,629.15c2.48,4.58,4.8,9.25,7.46,13.72,2.5,4.19,5.46,8.1,8,12.27,1.89,3.1,3.42,6.42,5.11,9.64-3.47.21-7,.83-10.4.51s-6.73-1.83-10.15-2.39c-5.33-.88-6.76-4.73-6.57-9a142.56,142.56,0,0,1,2.24-17.66c.42-2.42,1.75-4.69,2.66-7Z"/><path class="cls-1" d="M182.85,633.89c3.73,2.18,7.8,3.34,9.93,6,5.42,6.87,13.27,9.74,20.28,14a25.93,25.93,0,0,1,3.47,3.1c-1.27.91-2.42,2.23-3.83,2.65-4.75,1.39-9.64,2.34-14.41,3.69-5.3,1.5-8.77-.33-10.35-5.48-2.06-6.69-3.94-13.44-5.78-20.21C181.94,636.9,182.46,635.89,182.85,633.89Z"/><path d="M435.8,500.36c-1.53,0-2.2,0-2.86,0-6.56.17-6.28.18-6.08-6.55.26-9,.18-17.93-.05-26.89-.1-3.91,1.36-5.24,5.19-5.31,16-.31,18.67,2.14,18.84,17.94a29.52,29.52,0,0,1-.67,8.37C446.89,499.3,444.34,500.87,435.8,500.36Z"/></g></svg>